# xmcd
#
# Track frame offsets: 
#        150
#        27433
#        43585
#        53498
#        80326
#        114410
#        139149
#        158172
#        183964
#        198322
#        224568
#        242868
#        272286
#
# Disc length: 4036 seconds
#
# Revision: 2
# Processed by: cddbd v1.5.2PL0 Copyright (c) Steve Scherf et al.
# Submitted via: ExactAudioCopyFreeDBPlugin 1.0
#
DISCID=ae0fc20d
DTITLE=Bob Dylan - The Bootleg Series Vol. 8 - Tell Tale Signs [CD1)
DYEAR=2008
DGENRE=Rock
TTITLE0=Mississippi (unreleased, Time Out Of Mind)
TTITLE1=Most Of The Time (alternate version, Oh Mercy)
TTITLE2=Dignity (piano demo, Oh Mercy)
TTITLE3=Someday Baby (alternate version, Modern Times)
TTITLE4=Red River Shore (unreleased, Time Out Of Mind)
TTITLE5=Tell Ol' Bill (alternate version, North Country Soundtrack)
TTITLE6=Born In Time (unreleased, Oh Mercy)
TTITLE7=Can't Wait (alternate version, Time Out Of Mind)
TTITLE8=Everything Is Broken (alternate version, Oh Mercy)
TTITLE9=Dreamin' Of You (unreleased, Time Out Of Mind)
TTITLE10=Huck's Tune (from Lucky You soundtrack)
TTITLE11=Marchin' To The City (unreleased, Time Out Of Mind)
TTITLE12=High Water (for Charley Patton)
EXTD=YEAR: 2008
EXTT0=
EXTT1=
EXTT2=
EXTT3=
EXTT4=
EXTT5=
EXTT6=
EXTT7=
EXTT8=
EXTT9=
EXTT10=
EXTT11=
EXTT12=
PLAYORDER=
